# 3ds Max Wavefront OBJ Exporter v0.97b - (c)2007 guruware
# 创建的文件:28.02.2013 15:40:47

mtllib earth_new.mtl

#
# object Plane001
#

v  -40.7161 0.0000 20.9227
v  -40.7161 0.0000 39.7605
v  -19.6619 0.0000 39.7605
v  -19.6619 0.0000 20.9227
v  1.3923 0.0000 39.7605
v  1.3923 0.0000 20.9227
v  22.4465 0.0000 39.7605
v  22.4465 0.0000 20.9227
v  43.5007 0.0000 39.7605
v  43.5007 0.0000 20.9227
v  -40.7161 0.0000 2.0848
v  -19.6619 0.0000 2.0848
v  1.3923 0.0000 2.0848
v  22.4465 0.0000 2.0848
v  43.5007 0.0000 2.0848
v  -40.7161 0.0000 -16.7530
v  -19.6619 0.0000 -16.7530
v  1.3923 0.0000 -16.7530
v  22.4465 0.0000 -16.7530
v  43.5007 0.0000 -16.7530
v  -40.7161 0.0000 -35.5909
v  -19.6619 0.0000 -35.5909
v  1.3923 0.0000 -35.5909
v  22.4465 0.0000 -35.5909
v  43.5007 0.0000 -35.5909
# 25 vertices

vn 0.0000 1.0000 -0.0000
# 1 vertex normals

vt 0.0000 0.2500 0.0000
vt 0.0000 0.0000 0.0000
vt 0.2500 0.0000 0.0000
vt 0.2500 0.2500 0.0000
vt 0.5000 0.0000 0.0000
vt 0.5000 0.2500 0.0000
vt 0.7500 0.0000 0.0000
vt 0.7500 0.2500 0.0000
vt 1.0000 0.0000 0.0000
vt 1.0000 0.2500 0.0000
vt 0.0000 0.5000 0.0000
vt 0.2500 0.5000 0.0000
vt 0.5000 0.5000 0.0000
vt 0.7500 0.5000 0.0000
vt 1.0000 0.5000 0.0000
vt 0.0000 0.7500 0.0000
vt 0.2500 0.7500 0.0000
vt 0.5000 0.7500 0.0000
vt 0.7500 0.7500 0.0000
vt 1.0000 0.7500 0.0000
vt 0.0000 1.0000 0.0000
vt 0.2500 1.0000 0.0000
vt 0.5000 1.0000 0.0000
vt 0.7500 1.0000 0.0000
vt 1.0000 1.0000 0.0000
# 25 texture coords

g Plane001
usemtl wire_225087143
s 1
f 1/1/1 2/2/1 3/3/1 4/4/1 
f 4/4/1 3/3/1 5/5/1 6/6/1 
f 6/6/1 5/5/1 7/7/1 8/8/1 
f 8/8/1 7/7/1 9/9/1 10/10/1 
f 11/11/1 1/1/1 4/4/1 12/12/1 
f 12/12/1 4/4/1 6/6/1 13/13/1 
f 13/13/1 6/6/1 8/8/1 14/14/1 
f 14/14/1 8/8/1 10/10/1 15/15/1 
f 16/16/1 11/11/1 12/12/1 17/17/1 
f 17/17/1 12/12/1 13/13/1 18/18/1 
f 18/18/1 13/13/1 14/14/1 19/19/1 
f 19/19/1 14/14/1 15/15/1 20/20/1 
f 21/21/1 16/16/1 17/17/1 22/22/1 
f 22/22/1 17/17/1 18/18/1 23/23/1 
f 23/23/1 18/18/1 19/19/1 24/24/1 
f 24/24/1 19/19/1 20/20/1 25/25/1 
# 16 polygons

